<svg xmlns="http://www.w3.org/2000/svg" viewBox="0 0 500 500"><g id="freepik--Blocks--inject-2"><g id="freepik--black-block--inject-2"><polygon points="368.36 295.42 302.4 333.5 302.4 293.42 368.36 255.33 368.36 295.42" style="fill:#37474f"></polygon><polygon points="236.44 295.42 302.4 333.5 302.4 293.42 236.44 255.33 236.44 295.42" style="fill:#263238"></polygon><polygon points="368.36 255.33 302.4 217.25 236.44 255.33 302.4 293.42 368.36 255.33"></polygon><path d="M314,262.79c3.21,1.85,4.81,4.28,4.81,6.71V276c0,2.43-1.6,4.86-4.81,6.71a23.81,23.81,0,0,1-11.63,2.78V260A23.7,23.7,0,0,1,314,262.79Z" style="fill:#37474f"></path><path d="M290.77,262.79c-3.21,1.85-4.81,4.28-4.81,6.71V276c0,2.43,1.6,4.86,4.81,6.71a23.81,23.81,0,0,0,11.63,2.78V260A23.7,23.7,0,0,0,290.77,262.79Z" style="fill:#263238"></path><path d="M290.77,262.79c-6.42,3.7-6.42,9.71,0,13.42s16.83,3.71,23.26,0,6.42-9.72,0-13.42S297.19,259.08,290.77,262.79Z" style="fill:#455a64"></path><path d="M290.77,262.79c-6.42,3.7-6.42,9.71,0,13.42s16.83,3.71,23.26,0,6.42-9.72,0-13.42S297.19,259.08,290.77,262.79Z" style="fill:#fff;opacity:0.07"></path><path d="M314,225.64c3.21,1.85,4.81,4.28,4.81,6.71v6.49c0,2.43-1.6,4.86-4.81,6.71a23.7,23.7,0,0,1-11.63,2.78V222.86A23.81,23.81,0,0,1,314,225.64Z" style="fill:#37474f"></path><path d="M290.77,225.64c-3.21,1.85-4.81,4.28-4.81,6.71v6.49c0,2.43,1.6,4.86,4.81,6.71a23.7,23.7,0,0,0,11.63,2.78V222.86A23.81,23.81,0,0,0,290.77,225.64Z" style="fill:#263238"></path><path d="M290.77,225.64c-6.42,3.71-6.42,9.72,0,13.43s16.83,3.7,23.26,0,6.42-9.72,0-13.43S297.19,221.93,290.77,225.64Z" style="fill:#455a64"></path><path d="M290.77,225.64c-6.42,3.71-6.42,9.72,0,13.43s16.83,3.7,23.26,0,6.42-9.72,0-13.43S297.19,221.93,290.77,225.64Z" style="fill:#fff;opacity:0.07"></path><path d="M346.18,244.22c3.21,1.85,4.82,4.28,4.82,6.71v6.49c0,2.43-1.61,4.86-4.82,6.71a23.77,23.77,0,0,1-11.62,2.78V241.44A23.66,23.66,0,0,1,346.18,244.22Z" style="fill:#37474f"></path><path d="M322.93,244.22c-3.21,1.85-4.81,4.28-4.81,6.71v6.49c0,2.43,1.6,4.86,4.81,6.71a23.81,23.81,0,0,0,11.63,2.78V241.44A23.7,23.7,0,0,0,322.93,244.22Z" style="fill:#263238"></path><path d="M322.93,244.22c-6.42,3.7-6.42,9.71,0,13.42s16.83,3.71,23.25,0,6.43-9.72,0-13.42S329.35,240.51,322.93,244.22Z" style="fill:#455a64"></path><path d="M322.93,244.22c-6.42,3.7-6.42,9.71,0,13.42s16.83,3.71,23.25,0,6.43-9.72,0-13.42S329.35,240.51,322.93,244.22Z" style="fill:#fff;opacity:0.07"></path><path d="M281.87,244.2c3.21,1.86,4.81,4.29,4.81,6.72v6.49c0,2.42-1.6,4.85-4.81,6.71a23.81,23.81,0,0,1-11.63,2.78V241.42A23.81,23.81,0,0,1,281.87,244.2Z" style="fill:#37474f"></path><path d="M258.61,244.2c-3.21,1.86-4.81,4.29-4.81,6.72v6.49c0,2.42,1.6,4.85,4.81,6.71a23.81,23.81,0,0,0,11.63,2.78V241.42A23.81,23.81,0,0,0,258.61,244.2Z" style="fill:#263238"></path><path d="M258.61,244.2c-6.42,3.71-6.42,9.72,0,13.43s16.84,3.71,23.26,0,6.42-9.72,0-13.43S265,240.5,258.61,244.2Z" style="fill:#455a64"></path><path d="M258.61,244.2c-6.42,3.71-6.42,9.72,0,13.43s16.84,3.71,23.26,0,6.42-9.72,0-13.43S265,240.5,258.61,244.2Z" style="fill:#fff;opacity:0.07"></path></g><g id="freepik--color-block--inject-2"><polygon points="432.65 393.06 366.69 431.14 366.69 391.05 432.65 352.97 432.65 393.06" style="fill:#405489"></polygon><polygon points="432.65 393.06 366.69 431.14 366.69 391.05 432.65 352.97 432.65 393.06" style="opacity:0.1"></polygon><polygon points="300.74 393.06 366.69 431.14 366.69 391.05 300.73 352.97 300.74 393.06" style="fill:#405489"></polygon><polygon points="300.74 393.06 366.69 431.14 366.69 391.05 300.73 352.97 300.74 393.06" style="opacity:0.2"></polygon><polygon points="432.65 352.97 366.69 314.89 300.73 352.97 366.69 391.05 432.65 352.97" style="fill:#405489"></polygon><path d="M383.13,330c0-2.43-1.6-4.86-4.81-6.71-6.42-3.71-16.83-3.71-23.25,0-3.21,1.85-4.82,4.28-4.82,6.71v6.49c0,2.43,1.61,4.85,4.82,6.71,6.42,3.71,16.83,3.71,23.25,0,3.21-1.86,4.82-4.28,4.81-6.71Z" style="fill:#405489"></path><path d="M378.32,323.28c3.21,1.85,4.82,4.28,4.81,6.71v6.49c0,2.43-1.6,4.85-4.81,6.71A23.81,23.81,0,0,1,366.69,346V320.5A23.7,23.7,0,0,1,378.32,323.28Z" style="opacity:0.1"></path><path d="M355.07,323.28c-3.21,1.85-4.82,4.28-4.82,6.71v6.49c0,2.43,1.61,4.85,4.82,6.71A23.8,23.8,0,0,0,366.69,346V320.5A23.69,23.69,0,0,0,355.07,323.28Z" style="opacity:0.2"></path><path d="M355.07,323.28c-6.42,3.7-6.42,9.71,0,13.42s16.83,3.71,23.25,0,6.42-9.72,0-13.42S361.49,319.57,355.07,323.28Z" style="fill:#405489"></path><path d="M355.07,323.28c-6.42,3.7-6.42,9.71,0,13.42s16.83,3.71,23.25,0,6.42-9.72,0-13.42S361.49,319.57,355.07,323.28Z" style="fill:#fff;opacity:0.30000000000000004"></path><path d="M383.13,367.13c0-2.42-1.6-4.85-4.81-6.71-6.42-3.71-16.83-3.71-23.25,0-3.21,1.86-4.82,4.28-4.82,6.71v6.49c0,2.43,1.61,4.86,4.82,6.71,6.42,3.71,16.83,3.71,23.25,0,3.21-1.85,4.82-4.28,4.81-6.71Z" style="fill:#405489"></path><path d="M378.32,360.42c3.21,1.86,4.82,4.28,4.81,6.71v6.49c0,2.43-1.6,4.86-4.81,6.71a23.59,23.59,0,0,1-11.63,2.78V357.64A23.81,23.81,0,0,1,378.32,360.42Z" style="opacity:0.1"></path><path d="M355.07,360.42c-3.21,1.86-4.82,4.28-4.82,6.71v6.49c0,2.43,1.61,4.86,4.82,6.71a23.58,23.58,0,0,0,11.62,2.78V357.64A23.8,23.8,0,0,0,355.07,360.42Z" style="opacity:0.2"></path><path d="M355.07,360.42c-6.42,3.71-6.42,9.72,0,13.43s16.83,3.7,23.25,0,6.42-9.72,0-13.43S361.49,356.71,355.07,360.42Z" style="fill:#405489"></path><path d="M355.07,360.42c-6.42,3.71-6.42,9.72,0,13.43s16.83,3.7,23.25,0,6.42-9.72,0-13.43S361.49,356.71,355.07,360.42Z" style="fill:#fff;opacity:0.30000000000000004"></path><path d="M351,348.55c0-2.43-1.61-4.86-4.82-6.71-6.42-3.71-16.83-3.71-23.25,0-3.21,1.85-4.82,4.28-4.82,6.71V355c0,2.43,1.61,4.86,4.82,6.71,6.42,3.71,16.83,3.71,23.25,0,3.21-1.85,4.82-4.28,4.82-6.71C351,353.24,351,350.35,351,348.55Z" style="fill:#405489"></path><path d="M346.16,341.84c3.21,1.85,4.82,4.28,4.82,6.71,0,1.8,0,4.69,0,6.49,0,2.43-1.61,4.86-4.82,6.71a23.7,23.7,0,0,1-11.63,2.78V339.06A23.81,23.81,0,0,1,346.16,341.84Z" style="opacity:0.1"></path><path d="M322.91,341.84c-3.21,1.85-4.82,4.28-4.82,6.71V355c0,2.43,1.61,4.86,4.82,6.71a23.69,23.69,0,0,0,11.62,2.78V339.06A23.8,23.8,0,0,0,322.91,341.84Z" style="opacity:0.2"></path><path d="M322.91,341.84c-6.42,3.71-6.42,9.72,0,13.42s16.83,3.71,23.25,0,6.42-9.71,0-13.42S329.33,338.13,322.91,341.84Z" style="fill:#405489"></path><path d="M322.91,341.84c-6.42,3.71-6.42,9.72,0,13.42s16.83,3.71,23.25,0,6.42-9.71,0-13.42S329.33,338.13,322.91,341.84Z" style="fill:#fff;opacity:0.30000000000000004"></path><path d="M415.29,348.56c0-2.43-1.6-4.86-4.81-6.71-6.42-3.71-16.83-3.71-23.25,0-3.22,1.85-4.82,4.28-4.82,6.71v6.49c0,2.43,1.6,4.86,4.81,6.71,6.43,3.71,16.84,3.71,23.26,0,3.21-1.85,4.81-4.28,4.81-6.71Z" style="fill:#405489"></path><path d="M410.48,341.85c3.21,1.85,4.81,4.28,4.81,6.71v6.49c0,2.43-1.6,4.86-4.81,6.71a23.7,23.7,0,0,1-11.63,2.78V339.07A23.81,23.81,0,0,1,410.48,341.85Z" style="opacity:0.1"></path><path d="M387.23,341.85c-3.22,1.85-4.82,4.28-4.82,6.71v6.49c0,2.43,1.6,4.86,4.81,6.71a23.73,23.73,0,0,0,11.63,2.78V339.07A23.77,23.77,0,0,0,387.23,341.85Z" style="opacity:0.2"></path><path d="M387.23,341.85c-6.43,3.71-6.43,9.72,0,13.43s16.84,3.7,23.26,0,6.42-9.72,0-13.43S393.65,338.14,387.23,341.85Z" style="fill:#405489"></path><path d="M387.23,341.85c-6.43,3.71-6.43,9.72,0,13.43s16.84,3.7,23.26,0,6.42-9.72,0-13.43S393.65,338.14,387.23,341.85Z" style="fill:#fff;opacity:0.30000000000000004"></path></g><g id="freepik--dark-color-block--inject-2"><polygon points="368.36 252.43 302.4 290.51 302.4 250.42 368.36 212.34 368.36 252.43" style="fill:#405489"></polygon><polygon points="368.36 252.43 302.4 290.51 302.4 250.42 368.36 212.34 368.36 252.43" style="opacity:0.30000000000000004"></polygon><polygon points="236.44 252.43 302.4 290.51 302.4 250.42 236.44 212.34 236.44 252.43" style="fill:#405489"></polygon><polygon points="236.44 252.43 302.4 290.51 302.4 250.42 236.44 212.34 236.44 252.43" style="opacity:0.4"></polygon><polygon points="368.36 212.34 302.4 174.26 236.44 212.34 302.4 250.42 368.36 212.34" style="fill:#405489"></polygon><polygon points="368.36 212.34 302.4 174.26 236.44 212.34 302.4 250.42 368.36 212.34" style="opacity:0.55"></polygon><path d="M318.84,189.36c0-2.43-1.6-4.86-4.81-6.71-6.42-3.71-16.84-3.71-23.26,0-3.21,1.85-4.81,4.28-4.81,6.71v6.49c0,2.43,1.6,4.86,4.81,6.71,6.42,3.71,16.83,3.71,23.26,0,3.21-1.85,4.81-4.28,4.81-6.71Z" style="fill:#405489"></path><path d="M314,182.65c3.21,1.85,4.81,4.28,4.81,6.71v6.49c0,2.43-1.6,4.86-4.81,6.71a23.81,23.81,0,0,1-11.63,2.78V179.87A23.7,23.7,0,0,1,314,182.65Z" style="opacity:0.30000000000000004"></path><path d="M290.77,182.65c-3.21,1.85-4.81,4.28-4.81,6.71v6.49c0,2.43,1.6,4.86,4.81,6.71a23.81,23.81,0,0,0,11.63,2.78V179.87A23.7,23.7,0,0,0,290.77,182.65Z" style="opacity:0.4"></path><path d="M290.77,182.65c-6.42,3.7-6.42,9.71,0,13.42s16.83,3.71,23.26,0,6.42-9.72,0-13.42S297.19,178.94,290.77,182.65Z" style="fill:#405489"></path><path d="M290.77,182.65c-6.42,3.7-6.42,9.71,0,13.42s16.83,3.71,23.26,0,6.42-9.72,0-13.42S297.19,178.94,290.77,182.65Z" style="fill:#fff;opacity:0.30000000000000004"></path><path d="M318.84,226.51c0-2.43-1.6-4.86-4.81-6.72-6.42-3.7-16.84-3.7-23.26,0-3.21,1.86-4.81,4.29-4.81,6.71V233c0,2.43,1.6,4.86,4.81,6.72,6.42,3.7,16.83,3.7,23.26,0,3.21-1.86,4.81-4.29,4.81-6.72Z" style="fill:#405489"></path><path d="M314,219.79c3.21,1.86,4.81,4.29,4.81,6.71V233c0,2.43-1.6,4.86-4.81,6.72a23.81,23.81,0,0,1-11.63,2.78V217A23.81,23.81,0,0,1,314,219.79Z" style="opacity:0.30000000000000004"></path><path d="M290.77,219.79c-3.21,1.86-4.81,4.29-4.81,6.71V233c0,2.43,1.6,4.86,4.81,6.72a23.81,23.81,0,0,0,11.63,2.78V217A23.81,23.81,0,0,0,290.77,219.79Z" style="opacity:0.4"></path><path d="M290.77,219.79c-6.42,3.71-6.42,9.72,0,13.43s16.83,3.71,23.26,0,6.42-9.72,0-13.43S297.19,216.09,290.77,219.79Z" style="fill:#405489"></path><path d="M290.77,219.79c-6.42,3.71-6.42,9.72,0,13.43s16.83,3.71,23.26,0,6.42-9.72,0-13.43S297.19,216.09,290.77,219.79Z" style="fill:#fff;opacity:0.30000000000000004"></path><path d="M286.68,207.92c0-2.43-1.6-4.86-4.81-6.71-6.42-3.71-16.83-3.71-23.26,0-3.21,1.85-4.81,4.28-4.81,6.71v6.49c0,2.43,1.6,4.86,4.81,6.71,6.42,3.71,16.84,3.71,23.26,0,3.21-1.85,4.81-4.28,4.81-6.71Z" style="fill:#405489"></path><path d="M281.87,201.21c3.21,1.85,4.81,4.28,4.81,6.71v6.49c0,2.43-1.6,4.86-4.81,6.71a23.7,23.7,0,0,1-11.63,2.78V198.43A23.81,23.81,0,0,1,281.87,201.21Z" style="opacity:0.30000000000000004"></path><path d="M258.61,201.21c-3.21,1.85-4.81,4.28-4.81,6.71v6.49c0,2.43,1.6,4.86,4.81,6.71a23.7,23.7,0,0,0,11.63,2.78V198.43A23.81,23.81,0,0,0,258.61,201.21Z" style="opacity:0.4"></path><path d="M258.61,201.21c-6.42,3.71-6.42,9.72,0,13.43s16.84,3.7,23.26,0,6.42-9.72,0-13.43S265,197.5,258.61,201.21Z" style="fill:#405489"></path><path d="M258.61,201.21c-6.42,3.71-6.42,9.72,0,13.43s16.84,3.7,23.26,0,6.42-9.72,0-13.43S265,197.5,258.61,201.21Z" style="fill:#fff;opacity:0.30000000000000004"></path><path d="M351,207.93c0-2.42-1.6-4.85-4.82-6.71-6.42-3.71-16.83-3.71-23.25,0-3.21,1.86-4.81,4.28-4.81,6.71v6.49c0,2.43,1.6,4.86,4.81,6.71,6.42,3.71,16.83,3.71,23.25,0,3.22-1.85,4.82-4.28,4.82-6.71Z" style="fill:#405489"></path><path d="M346.18,201.22c3.21,1.86,4.82,4.28,4.82,6.71v6.49c0,2.43-1.61,4.86-4.82,6.71a23.66,23.66,0,0,1-11.62,2.78V198.44A23.77,23.77,0,0,1,346.18,201.22Z" style="opacity:0.30000000000000004"></path><path d="M322.93,201.22c-3.21,1.86-4.81,4.28-4.81,6.71v6.49c0,2.43,1.6,4.86,4.81,6.71a23.7,23.7,0,0,0,11.63,2.78V198.44A23.81,23.81,0,0,0,322.93,201.22Z" style="opacity:0.4"></path><path d="M322.93,201.22c-6.42,3.71-6.42,9.72,0,13.43s16.83,3.7,23.25,0,6.43-9.72,0-13.43S329.35,197.51,322.93,201.22Z" style="fill:#405489"></path><path d="M322.93,201.22c-6.42,3.71-6.42,9.72,0,13.43s16.83,3.7,23.25,0,6.43-9.72,0-13.43S329.35,197.51,322.93,201.22Z" style="fill:#fff;opacity:0.30000000000000004"></path></g><g id="freepik--dark-color-block--inject-2"><polygon points="298.93 335.5 232.97 373.59 232.97 333.5 298.93 295.42 298.93 335.5" style="fill:#405489"></polygon><polygon points="298.93 335.5 232.97 373.59 232.97 333.5 298.93 295.42 298.93 335.5" style="opacity:0.30000000000000004"></polygon><polygon points="167.01 335.5 232.97 373.59 232.97 333.5 167.01 295.42 167.01 335.5" style="fill:#405489"></polygon><polygon points="167.01 335.5 232.97 373.59 232.97 333.5 167.01 295.42 167.01 335.5" style="opacity:0.4"></polygon><polygon points="298.93 295.42 232.97 257.34 167.01 295.42 232.97 333.5 298.93 295.42" style="fill:#405489"></polygon><polygon points="298.93 295.42 232.97 257.34 167.01 295.42 232.97 333.5 298.93 295.42" style="opacity:0.55"></polygon><path d="M249.41,272.44c0-2.43-1.6-4.86-4.81-6.71-6.42-3.71-16.83-3.71-23.26,0-3.21,1.85-4.81,4.28-4.81,6.71v6.49c0,2.43,1.6,4.86,4.81,6.71,6.42,3.71,16.84,3.71,23.26,0,3.21-1.85,4.81-4.28,4.81-6.71Z" style="fill:#405489"></path><path d="M244.6,265.73c3.21,1.85,4.81,4.28,4.81,6.71v6.49c0,2.43-1.6,4.86-4.81,6.71A23.81,23.81,0,0,1,233,288.42V263A23.7,23.7,0,0,1,244.6,265.73Z" style="opacity:0.30000000000000004"></path><path d="M221.34,265.73c-3.21,1.85-4.81,4.28-4.81,6.71v6.49c0,2.43,1.6,4.86,4.81,6.71A23.81,23.81,0,0,0,233,288.42V263A23.7,23.7,0,0,0,221.34,265.73Z" style="opacity:0.4"></path><path d="M221.34,265.73c-6.42,3.7-6.42,9.71,0,13.42s16.84,3.71,23.26,0,6.42-9.72,0-13.42S227.77,262,221.34,265.73Z" style="fill:#405489"></path><path d="M221.34,265.73c-6.42,3.7-6.42,9.71,0,13.42s16.84,3.71,23.26,0,6.42-9.72,0-13.42S227.77,262,221.34,265.73Z" style="fill:#fff;opacity:0.30000000000000004"></path><path d="M249.41,309.58c0-2.42-1.6-4.85-4.81-6.71-6.42-3.71-16.83-3.71-23.26,0-3.21,1.86-4.81,4.28-4.81,6.71v6.49c0,2.43,1.6,4.86,4.81,6.71,6.42,3.71,16.84,3.71,23.26,0,3.21-1.85,4.81-4.28,4.81-6.71Z" style="fill:#405489"></path><path d="M244.6,302.87c3.21,1.86,4.81,4.28,4.81,6.71v6.49c0,2.43-1.6,4.86-4.81,6.71A23.71,23.71,0,0,1,233,325.57V300.09A23.81,23.81,0,0,1,244.6,302.87Z" style="opacity:0.30000000000000004"></path><path d="M221.34,302.87c-3.21,1.86-4.81,4.28-4.81,6.71v6.49c0,2.43,1.6,4.86,4.81,6.71A23.71,23.71,0,0,0,233,325.57V300.09A23.81,23.81,0,0,0,221.34,302.87Z" style="opacity:0.4"></path><path d="M221.34,302.87c-6.42,3.71-6.42,9.72,0,13.43s16.84,3.7,23.26,0,6.42-9.72,0-13.43S227.77,299.16,221.34,302.87Z" style="fill:#405489"></path><path d="M221.34,302.87c-6.42,3.71-6.42,9.72,0,13.43s16.84,3.7,23.26,0,6.42-9.72,0-13.43S227.77,299.16,221.34,302.87Z" style="fill:#fff;opacity:0.30000000000000004"></path><path d="M217.25,291c0-2.43-1.6-4.86-4.81-6.71-6.42-3.71-16.83-3.71-23.26,0-3.21,1.85-4.81,4.28-4.81,6.71v6.49c0,2.43,1.6,4.86,4.81,6.71,6.42,3.71,16.84,3.71,23.26,0,3.21-1.85,4.81-4.28,4.81-6.71Z" style="fill:#405489"></path><path d="M212.44,284.29c3.21,1.85,4.81,4.28,4.81,6.71v6.49c0,2.43-1.6,4.86-4.81,6.71A23.7,23.7,0,0,1,200.81,307V281.51A23.81,23.81,0,0,1,212.44,284.29Z" style="opacity:0.30000000000000004"></path><path d="M189.18,284.29c-3.21,1.85-4.81,4.28-4.81,6.71v6.49c0,2.43,1.6,4.86,4.81,6.71A23.7,23.7,0,0,0,200.81,307V281.51A23.84,23.84,0,0,0,189.18,284.29Z" style="opacity:0.4"></path><path d="M189.18,284.29c-6.42,3.71-6.42,9.72,0,13.42s16.84,3.71,23.26,0,6.42-9.71,0-13.42S195.61,280.58,189.18,284.29Z" style="fill:#405489"></path><path d="M189.18,284.29c-6.42,3.71-6.42,9.72,0,13.42s16.84,3.71,23.26,0,6.42-9.71,0-13.42S195.61,280.58,189.18,284.29Z" style="fill:#fff;opacity:0.30000000000000004"></path><path d="M281.57,291c0-2.43-1.6-4.85-4.82-6.71-6.42-3.71-16.83-3.71-23.25,0-3.21,1.85-4.81,4.28-4.81,6.71v6.49c0,2.43,1.6,4.86,4.81,6.71,6.42,3.71,16.83,3.71,23.25,0,3.22-1.85,4.82-4.28,4.82-6.71Z" style="fill:#405489"></path><path d="M276.75,284.3c3.21,1.85,4.82,4.28,4.82,6.71v6.49c0,2.43-1.6,4.86-4.81,6.71A23.73,23.73,0,0,1,265.13,307V281.52A23.77,23.77,0,0,1,276.75,284.3Z" style="opacity:0.30000000000000004"></path><path d="M253.5,284.3c-3.21,1.85-4.81,4.28-4.81,6.71v6.49c0,2.43,1.6,4.86,4.81,6.71A23.7,23.7,0,0,0,265.13,307V281.52A23.81,23.81,0,0,0,253.5,284.3Z" style="opacity:0.4"></path><path d="M253.5,284.3c-6.42,3.71-6.42,9.72,0,13.43s16.83,3.7,23.25,0,6.43-9.72,0-13.43S259.92,280.59,253.5,284.3Z" style="fill:#405489"></path><path d="M253.5,284.3c-6.42,3.71-6.42,9.72,0,13.43s16.83,3.7,23.25,0,6.43-9.72,0-13.43S259.92,280.59,253.5,284.3Z" style="fill:#fff;opacity:0.30000000000000004"></path></g><g id="freepik--color-block--inject-2"><polygon points="298.93 292.51 232.97 330.59 232.97 290.51 298.93 252.43 298.93 292.51" style="fill:#405489"></polygon><polygon points="298.93 292.51 232.97 330.59 232.97 290.51 298.93 252.43 298.93 292.51" style="opacity:0.1"></polygon><polygon points="167.01 292.51 232.97 330.59 232.97 290.51 167.01 252.43 167.01 292.51" style="fill:#405489"></polygon><polygon points="167.01 292.51 232.97 330.59 232.97 290.51 167.01 252.43 167.01 292.51" style="opacity:0.2"></polygon><polygon points="298.93 252.43 232.97 214.34 167.01 252.43 232.97 290.51 298.93 252.43" style="fill:#405489"></polygon><path d="M249.41,229.44c0-2.43-1.6-4.85-4.81-6.71-6.42-3.71-16.83-3.71-23.26,0-3.21,1.86-4.81,4.28-4.81,6.71v6.49c0,2.43,1.6,4.86,4.81,6.71,6.42,3.71,16.84,3.71,23.26,0,3.21-1.85,4.81-4.28,4.81-6.71Z" style="fill:#405489"></path><path d="M244.6,222.73c3.21,1.86,4.81,4.28,4.81,6.71v6.49c0,2.43-1.6,4.86-4.81,6.71A23.7,23.7,0,0,1,233,245.42V220A23.81,23.81,0,0,1,244.6,222.73Z" style="opacity:0.1"></path><path d="M221.34,222.73c-3.21,1.86-4.81,4.28-4.81,6.71v6.49c0,2.43,1.6,4.86,4.81,6.71A23.7,23.7,0,0,0,233,245.42V220A23.81,23.81,0,0,0,221.34,222.73Z" style="opacity:0.2"></path><path d="M221.34,222.73c-6.42,3.71-6.42,9.72,0,13.43s16.84,3.7,23.26,0,6.42-9.72,0-13.43S227.77,219,221.34,222.73Z" style="fill:#405489"></path><path d="M221.34,222.73c-6.42,3.71-6.42,9.72,0,13.43s16.84,3.7,23.26,0,6.42-9.72,0-13.43S227.77,219,221.34,222.73Z" style="fill:#fff;opacity:0.30000000000000004"></path><path d="M249.41,266.59c0-2.43-1.6-4.86-4.81-6.71-6.42-3.71-16.83-3.71-23.26,0-3.21,1.85-4.81,4.28-4.81,6.71v6.49c0,2.43,1.6,4.86,4.81,6.71,6.42,3.71,16.84,3.71,23.26,0,3.21-1.85,4.81-4.28,4.81-6.71Z" style="fill:#405489"></path><path d="M244.6,259.88c3.21,1.85,4.81,4.28,4.81,6.71v6.49c0,2.43-1.6,4.86-4.81,6.71A23.81,23.81,0,0,1,233,282.57V257.1A23.7,23.7,0,0,1,244.6,259.88Z" style="opacity:0.1"></path><path d="M221.34,259.88c-3.21,1.85-4.81,4.28-4.81,6.71v6.49c0,2.43,1.6,4.86,4.81,6.71A23.81,23.81,0,0,0,233,282.57V257.1A23.7,23.7,0,0,0,221.34,259.88Z" style="opacity:0.2"></path><path d="M221.34,259.88c-6.42,3.71-6.42,9.72,0,13.42s16.84,3.71,23.26,0,6.42-9.71,0-13.42S227.77,256.17,221.34,259.88Z" style="fill:#405489"></path><path d="M221.34,259.88c-6.42,3.71-6.42,9.72,0,13.42s16.84,3.71,23.26,0,6.42-9.71,0-13.42S227.77,256.17,221.34,259.88Z" style="fill:#fff;opacity:0.30000000000000004"></path><path d="M217.25,248c0-2.43-1.6-4.86-4.81-6.71-6.42-3.71-16.83-3.71-23.26,0-3.21,1.85-4.81,4.28-4.81,6.71v6.49c0,2.43,1.6,4.85,4.81,6.71,6.42,3.7,16.84,3.71,23.26,0,3.21-1.86,4.81-4.29,4.81-6.71Z" style="fill:#405489"></path><path d="M212.44,241.3c3.21,1.85,4.81,4.28,4.81,6.71v6.49c0,2.43-1.6,4.85-4.81,6.71A23.81,23.81,0,0,1,200.81,264V238.51A23.71,23.71,0,0,1,212.44,241.3Z" style="opacity:0.1"></path><path d="M189.18,241.3c-3.21,1.85-4.81,4.28-4.81,6.71v6.49c0,2.43,1.6,4.85,4.81,6.71A23.81,23.81,0,0,0,200.81,264V238.51A23.73,23.73,0,0,0,189.18,241.3Z" style="opacity:0.2"></path><path d="M189.18,241.3c-6.42,3.7-6.42,9.71,0,13.42s16.84,3.71,23.26,0,6.42-9.72,0-13.42S195.61,237.59,189.18,241.3Z" style="fill:#405489"></path><path d="M189.18,241.3c-6.42,3.7-6.42,9.71,0,13.42s16.84,3.71,23.26,0,6.42-9.72,0-13.42S195.61,237.59,189.18,241.3Z" style="fill:#fff;opacity:0.30000000000000004"></path><path d="M281.57,248c0-2.43-1.6-4.86-4.82-6.71-6.42-3.71-16.83-3.71-23.25,0-3.21,1.85-4.81,4.28-4.81,6.71v6.49c0,2.43,1.6,4.86,4.81,6.71,6.42,3.71,16.83,3.71,23.25,0,3.22-1.85,4.82-4.28,4.82-6.71Z" style="fill:#405489"></path><path d="M276.75,241.31c3.21,1.85,4.82,4.28,4.82,6.71v6.49c0,2.43-1.6,4.86-4.81,6.71A23.84,23.84,0,0,1,265.13,264V238.53A23.66,23.66,0,0,1,276.75,241.31Z" style="opacity:0.1"></path><path d="M253.5,241.31c-3.21,1.85-4.81,4.28-4.81,6.71v6.49c0,2.43,1.6,4.86,4.81,6.71A23.81,23.81,0,0,0,265.13,264V238.53A23.7,23.7,0,0,0,253.5,241.31Z" style="opacity:0.2"></path><path d="M253.5,241.31c-6.42,3.7-6.42,9.71,0,13.42s16.83,3.71,23.25,0,6.43-9.72,0-13.42S259.92,237.6,253.5,241.31Z" style="fill:#405489"></path><path d="M253.5,241.31c-6.42,3.7-6.42,9.71,0,13.42s16.83,3.71,23.25,0,6.43-9.72,0-13.42S259.92,237.6,253.5,241.31Z" style="fill:#fff;opacity:0.30000000000000004"></path></g><g id="freepik--black-block--inject-2"><polygon points="229.5 375.59 163.54 413.67 163.54 373.59 229.5 335.5 229.5 375.59" style="fill:#37474f"></polygon><polygon points="97.58 375.59 163.54 413.67 163.54 373.59 97.58 335.5 97.58 375.59" style="fill:#263238"></polygon><polygon points="229.5 335.5 163.54 297.42 97.58 335.5 163.54 373.59 229.5 335.5" style="fill:#455a64"></polygon><path d="M175.17,343c3.21,1.85,4.81,4.28,4.81,6.71v6.49c0,2.43-1.6,4.86-4.81,6.71a23.81,23.81,0,0,1-11.63,2.78V340.18A23.7,23.7,0,0,1,175.17,343Z" style="fill:#37474f"></path><path d="M151.91,343c-3.21,1.85-4.81,4.28-4.81,6.71v6.49c0,2.43,1.6,4.86,4.81,6.71a23.81,23.81,0,0,0,11.63,2.78V340.18A23.7,23.7,0,0,0,151.91,343Z" style="fill:#263238"></path><path d="M151.91,343c-6.42,3.7-6.42,9.72,0,13.42s16.84,3.71,23.26,0,6.42-9.71,0-13.42S158.34,339.25,151.91,343Z" style="fill:#455a64"></path><path d="M151.91,343c-6.42,3.7-6.42,9.72,0,13.42s16.84,3.71,23.26,0,6.42-9.71,0-13.42S158.34,339.25,151.91,343Z" style="fill:#fff;opacity:0.07"></path><path d="M175.17,305.81c3.21,1.85,4.81,4.28,4.81,6.71V319c0,2.43-1.6,4.86-4.81,6.71a23.7,23.7,0,0,1-11.63,2.78V303A23.81,23.81,0,0,1,175.17,305.81Z" style="fill:#37474f"></path><path d="M151.91,305.81c-3.21,1.85-4.81,4.28-4.81,6.71V319c0,2.43,1.6,4.86,4.81,6.71a23.7,23.7,0,0,0,11.63,2.78V303A23.81,23.81,0,0,0,151.91,305.81Z" style="fill:#263238"></path><path d="M151.91,305.81c-6.42,3.71-6.42,9.72,0,13.43s16.84,3.7,23.26,0,6.42-9.72,0-13.43S158.34,302.1,151.91,305.81Z" style="fill:#455a64"></path><path d="M151.91,305.81c-6.42,3.71-6.42,9.72,0,13.43s16.84,3.7,23.26,0,6.42-9.72,0-13.43S158.34,302.1,151.91,305.81Z" style="fill:#fff;opacity:0.07"></path><path d="M207.32,324.39c3.21,1.85,4.82,4.28,4.82,6.71v6.49c0,2.43-1.6,4.86-4.81,6.71a23.84,23.84,0,0,1-11.63,2.78V321.61A23.66,23.66,0,0,1,207.32,324.39Z" style="fill:#37474f"></path><path d="M184.07,324.39c-3.21,1.85-4.81,4.28-4.81,6.71v6.49c0,2.43,1.6,4.86,4.81,6.71a23.81,23.81,0,0,0,11.63,2.78V321.61A23.7,23.7,0,0,0,184.07,324.39Z" style="fill:#263238"></path><path d="M184.07,324.39c-6.42,3.7-6.42,9.71,0,13.42s16.83,3.71,23.25,0,6.43-9.72,0-13.42S190.49,320.68,184.07,324.39Z" style="fill:#455a64"></path><path d="M184.07,324.39c-6.42,3.7-6.42,9.71,0,13.42s16.83,3.71,23.25,0,6.43-9.72,0-13.42S190.49,320.68,184.07,324.39Z" style="fill:#fff;opacity:0.07"></path><path d="M143,324.37c3.21,1.86,4.81,4.29,4.81,6.72v6.49c0,2.42-1.6,4.85-4.81,6.71a23.81,23.81,0,0,1-11.63,2.78V321.59A23.81,23.81,0,0,1,143,324.37Z" style="fill:#37474f"></path><path d="M119.75,324.37c-3.21,1.86-4.81,4.29-4.81,6.72v6.49c0,2.42,1.6,4.85,4.81,6.71a23.81,23.81,0,0,0,11.63,2.78V321.59A23.84,23.84,0,0,0,119.75,324.37Z" style="fill:#263238"></path><path d="M119.75,324.37c-6.42,3.71-6.42,9.72,0,13.43s16.84,3.71,23.26,0,6.42-9.72,0-13.42S126.18,320.67,119.75,324.37Z" style="fill:#455a64"></path><path d="M119.75,324.37c-6.42,3.71-6.42,9.72,0,13.43s16.84,3.71,23.26,0,6.42-9.72,0-13.42S126.18,320.67,119.75,324.37Z" style="fill:#fff;opacity:0.07"></path></g><g id="freepik--black-block--inject-2"><polygon points="368.36 209.44 302.4 247.53 302.4 207.44 368.36 169.36 368.36 209.44" style="fill:#37474f"></polygon><polygon points="236.44 209.44 302.4 247.53 302.4 207.44 236.44 169.36 236.44 209.44" style="fill:#263238"></polygon><polygon points="368.36 169.36 302.4 131.28 236.44 169.36 302.4 207.44 368.36 169.36" style="fill:#455a64"></polygon><path d="M314,176.81c3.21,1.86,4.81,4.29,4.81,6.71V190c0,2.43-1.6,4.86-4.81,6.72a23.81,23.81,0,0,1-11.63,2.78V174A23.81,23.81,0,0,1,314,176.81Z" style="fill:#37474f"></path><path d="M290.77,176.81c-3.21,1.86-4.81,4.29-4.81,6.71V190c0,2.43,1.6,4.86,4.81,6.72a23.81,23.81,0,0,0,11.63,2.78V174A23.81,23.81,0,0,0,290.77,176.81Z" style="fill:#263238"></path><path d="M290.77,176.81c-6.42,3.71-6.42,9.72,0,13.43s16.83,3.7,23.26,0,6.42-9.72,0-13.43S297.19,173.11,290.77,176.81Z" style="fill:#455a64"></path><path d="M290.77,176.81c-6.42,3.71-6.42,9.72,0,13.43s16.83,3.7,23.26,0,6.42-9.72,0-13.43S297.19,173.11,290.77,176.81Z" style="fill:#fff;opacity:0.07"></path><path d="M314,139.67c3.21,1.85,4.81,4.28,4.81,6.71v6.49c0,2.43-1.6,4.86-4.81,6.71a23.81,23.81,0,0,1-11.63,2.78V136.89A23.7,23.7,0,0,1,314,139.67Z" style="fill:#37474f"></path><path d="M290.77,139.67c-3.21,1.85-4.81,4.28-4.81,6.71v6.49c0,2.43,1.6,4.86,4.81,6.71a23.81,23.81,0,0,0,11.63,2.78V136.89A23.7,23.7,0,0,0,290.77,139.67Z" style="fill:#263238"></path><path d="M290.77,139.67c-6.42,3.7-6.42,9.71,0,13.42s16.83,3.71,23.26,0,6.42-9.72,0-13.42S297.19,136,290.77,139.67Z" style="fill:#455a64"></path><path d="M290.77,139.67c-6.42,3.7-6.42,9.71,0,13.42s16.83,3.71,23.26,0,6.42-9.72,0-13.42S297.19,136,290.77,139.67Z" style="fill:#fff;opacity:0.07"></path><path d="M346.18,158.24c3.21,1.86,4.82,4.28,4.82,6.71v6.49c0,2.43-1.61,4.86-4.82,6.71a23.66,23.66,0,0,1-11.62,2.78V155.46A23.77,23.77,0,0,1,346.18,158.24Z" style="fill:#37474f"></path><path d="M322.93,158.24c-3.21,1.86-4.81,4.28-4.81,6.71v6.49c0,2.43,1.6,4.86,4.81,6.71a23.7,23.7,0,0,0,11.63,2.78V155.46A23.81,23.81,0,0,0,322.93,158.24Z" style="fill:#263238"></path><path d="M322.93,158.24c-6.42,3.71-6.42,9.72,0,13.43s16.83,3.7,23.25,0,6.43-9.72,0-13.43S329.35,154.53,322.93,158.24Z" style="fill:#455a64"></path><path d="M322.93,158.24c-6.42,3.71-6.42,9.72,0,13.43s16.83,3.7,23.25,0,6.43-9.72,0-13.43S329.35,154.53,322.93,158.24Z" style="fill:#fff;opacity:0.07"></path><path d="M281.87,158.23c3.21,1.85,4.81,4.28,4.81,6.71v6.49c0,2.43-1.6,4.86-4.81,6.71a23.7,23.7,0,0,1-11.63,2.78V155.45A23.81,23.81,0,0,1,281.87,158.23Z" style="fill:#37474f"></path><path d="M258.61,158.23c-3.21,1.85-4.81,4.28-4.81,6.71v6.49c0,2.43,1.6,4.86,4.81,6.71a23.7,23.7,0,0,0,11.63,2.78V155.45A23.81,23.81,0,0,0,258.61,158.23Z" style="fill:#263238"></path><path d="M258.61,158.23c-6.42,3.71-6.42,9.72,0,13.42s16.84,3.71,23.26,0,6.42-9.72,0-13.43S265,154.52,258.61,158.23Z" style="fill:#455a64"></path><path d="M258.61,158.23c-6.42,3.71-6.42,9.72,0,13.42s16.84,3.71,23.26,0,6.42-9.72,0-13.43S265,154.52,258.61,158.23Z" style="fill:#fff;opacity:0.07"></path></g></g></svg>