<svg
    width="196"
    height="55"
    viewBox="0 0 196 55"
    fill="none"
    xmlns="http://www.w3.org/2000/svg">
    <path
        d="M26.6649 0.543327C33.7733 0.543327 39.945 3.1129 45.1802 8.25204C50.4154 13.3912 53.033 19.7791 53.033 27.4158C53.033 35.0044 50.5355 41.4884 45.5404 46.8676C40.5454 52.1989 34.3976 54.8645 27.0972 54.8645C19.7967 54.8645 13.5769 52.2229 8.43777 46.9397C3.34666 41.6565 0.801102 35.3646 0.801102 28.0641C0.801102 24.0777 1.52154 20.3554 2.96242 16.8973C4.4033 13.3912 6.32448 10.4614 8.72595 8.10795C11.1274 5.75451 13.8891 3.90538 17.011 2.56056C20.1329 1.21574 23.3509 0.543327 26.6649 0.543327ZM13.5529 27.7039C13.5529 31.9785 14.9217 35.4607 17.6594 38.1503C20.4451 40.7919 23.543 42.1127 26.9531 42.1127C30.3632 42.1127 33.437 40.8159 36.1747 38.2224C38.9124 35.6288 40.2812 32.1466 40.2812 27.776C40.2812 23.4053 38.8884 19.8992 36.1027 17.2575C33.365 14.6159 30.2911 13.2951 26.881 13.2951C23.471 13.2951 20.3971 14.6399 17.6594 17.3296C14.9217 19.9712 13.5529 23.4293 13.5529 27.7039Z"
        fill="#2B2B2B" />
    <path
        d="M90.38 3.13691C90.7642 2.41647 91.4126 1.91216 92.3252 1.62399C93.2377 1.33581 94.3904 1.19172 95.7833 1.19172C97.1761 1.19172 98.2808 1.3118 99.0973 1.55194C99.9138 1.79209 100.538 2.08027 100.97 2.41647C101.403 2.75268 101.739 3.23297 101.979 3.85735C102.219 4.67385 102.339 5.92262 102.339 7.60364V47.5881C102.339 48.6928 102.291 49.5333 102.195 50.1096C102.147 50.6379 101.931 51.2623 101.547 51.9828C100.874 53.2796 99.0012 53.928 95.9274 53.928C92.5653 53.928 90.5961 53.0394 90.0198 51.2623C89.7316 50.4458 89.5875 49.1971 89.5875 47.516V32.8911H70.4958V47.5881C70.4958 48.6928 70.4478 49.5333 70.3517 50.1096C70.3037 50.6379 70.0876 51.2623 69.7033 51.9828C69.0309 53.2796 67.1578 53.928 64.0839 53.928C60.7218 53.928 58.7526 53.0394 58.1763 51.2623C57.8881 50.4458 57.744 49.1971 57.744 47.516V7.5316C57.744 6.42692 57.768 5.61042 57.8161 5.0821C57.9121 4.50575 58.1523 3.85735 58.5365 3.13691C59.2089 1.84012 61.0821 1.19172 64.1559 1.19172C67.518 1.19172 69.5112 2.08027 70.1356 3.85735C70.3758 4.67385 70.4958 5.92262 70.4958 7.60364V22.3006H89.5875V7.5316C89.5875 6.42692 89.6115 5.61042 89.6595 5.0821C89.7556 4.50575 89.9957 3.85735 90.38 3.13691Z"
        fill="#2B2B2B" />
    <path
        d="M193.951 11.8542C195.2 14.3998 195.824 17.2335 195.824 20.3554C195.824 23.4773 195.2 26.3111 193.951 28.8566C192.702 31.3542 191.093 33.3474 189.124 34.8363C185.138 37.9102 181.007 39.4471 176.733 39.4471H167.727V47.5881C167.727 48.6928 167.679 49.5333 167.583 50.1096C167.535 50.6379 167.319 51.2623 166.935 51.9828C166.262 53.2796 164.389 53.928 161.315 53.928C157.953 53.928 155.984 53.0394 155.408 51.2623C155.119 50.4458 154.975 49.1971 154.975 47.516V7.5316C154.975 6.42692 154.999 5.61042 155.047 5.0821C155.143 4.50575 155.384 3.85735 155.768 3.13691C156.44 1.84012 158.313 1.19172 161.387 1.19172H176.805C181.031 1.19172 185.138 2.72866 189.124 5.80254C191.093 7.29145 192.702 9.30869 193.951 11.8542ZM176.805 26.6953C178.246 26.6953 179.662 26.167 181.055 25.1103C182.448 24.0537 183.145 22.4687 183.145 20.3554C183.145 18.2421 182.448 16.6572 181.055 15.6005C179.662 14.4959 178.222 13.9435 176.733 13.9435H167.727V26.6953H176.805Z"
        fill="#2B2B2B" />
    <path
        d="M123.276 43.0493C123.756 42.0887 124.477 41.4403 125.437 41.1041C126.446 40.7679 127.983 40.5998 130.048 40.5998C132.161 40.5998 133.674 41.0561 134.587 41.9686C135.547 42.8812 136.028 44.3221 136.028 46.2913V47.444C136.028 48.5967 135.98 49.4612 135.884 50.0376C135.836 50.5659 135.62 51.2143 135.235 51.9828C134.467 53.3756 132.618 54.072 129.688 54.072C126.806 54.072 124.885 53.6158 123.924 52.7032C123.012 51.7426 122.556 49.9175 122.556 47.2279C122.556 45.3547 122.796 43.9619 123.276 43.0493ZM132.93 34.6202C132.017 34.8603 130.793 34.9804 129.256 34.9804C127.719 34.9804 126.494 34.8603 125.581 34.6202C124.669 34.38 124.02 33.9477 123.636 33.3234C123.3 32.699 123.084 32.1466 122.988 31.6664C122.94 31.1861 122.916 30.4416 122.916 29.433V6.59502C122.916 5.58641 122.94 4.84196 122.988 4.36166C123.084 3.83334 123.324 3.25698 123.708 2.6326C124.092 2.00822 124.741 1.57596 125.653 1.33581C126.566 1.04764 127.791 0.903547 129.328 0.903547C130.865 0.903547 132.089 1.04764 133.002 1.33581C133.914 1.57596 134.539 2.03224 134.875 2.70465C135.259 3.32903 135.475 3.90538 135.523 4.43371C135.62 4.914 135.668 5.65845 135.668 6.66707V29.505C135.668 30.5136 135.62 31.2581 135.523 31.7384C135.475 32.2187 135.259 32.771 134.875 33.3954C134.491 33.9718 133.842 34.38 132.93 34.6202Z"
        fill="#EF6060" />
    <path
        d="M107.523 11.5253C107.218 10.4942 107.066 9.11025 107.066 7.3736C107.066 5.63694 107.218 4.25305 107.523 3.22191C107.828 2.19077 108.376 1.45812 109.168 1.02396C109.96 0.644063 110.661 0.399846 111.27 0.291306C111.879 0.237035 112.823 0.2099 114.103 0.2099L143.073 0.209901C144.352 0.209901 145.297 0.237037 145.906 0.291307C146.576 0.399848 147.307 0.6712 148.099 1.10536C148.891 1.53953 149.44 2.27218 149.744 3.30332C150.11 4.33446 150.292 5.71835 150.292 7.45501C150.292 9.19166 150.11 10.5756 149.744 11.6067C149.44 12.6378 148.861 13.3434 148.008 13.7232C147.216 14.1574 146.485 14.4016 145.814 14.4559C145.205 14.5644 144.261 14.6187 142.981 14.6187L114.012 14.6187C112.732 14.6187 111.788 14.5644 111.178 14.4559C110.569 14.4016 109.869 14.1574 109.077 13.7232C108.345 13.2891 107.828 12.5564 107.523 11.5253Z"
        fill="#2B2B2B" />
</svg>