<svg width="132" height="48" viewBox="0 0 132 48" fill="none" xmlns="http://www.w3.org/2000/svg">
<g clip-path="url(#clip0_0_4)">
<rect width="131.507" height="48" rx="6.57534" fill="white"/>
<path d="M18.8482 6.27507C23.5221 6.27507 27.5803 7.96465 31.0226 11.3438C34.4649 14.723 36.1861 18.9232 36.1861 23.9446C36.1861 28.9344 34.5439 33.1978 31.2595 36.7349C27.975 40.2404 23.9327 41.9931 19.1324 41.9931C14.3321 41.9931 10.2423 40.2562 6.86318 36.7823C3.5156 33.3084 1.84181 29.1713 1.84181 24.371C1.84181 21.7497 2.31553 19.3022 3.26295 17.0284C4.21038 14.723 5.47362 12.7965 7.05267 11.2491C8.63172 9.7016 10.4476 8.48574 12.5004 7.60147C14.5531 6.7172 16.6691 6.27507 18.8482 6.27507ZM10.2266 24.1341C10.2266 26.9448 11.1266 29.2344 12.9267 31.003C14.7584 32.7399 16.7954 33.6084 19.0376 33.6084C21.2799 33.6084 23.3011 32.7557 25.1012 31.0503C26.9013 29.345 27.8014 27.0553 27.8014 24.1815C27.8014 21.3076 26.8855 19.0022 25.0538 17.2652C23.2537 15.5283 21.2325 14.6598 18.9903 14.6598C16.748 14.6598 14.7268 15.5441 12.9267 17.3126C11.1266 19.0496 10.2266 21.3234 10.2266 24.1341Z" fill="#2B2B2B"/>
<path d="M60.743 7.98044C60.9956 7.50673 61.422 7.17513 62.022 6.98564C62.6221 6.79616 63.38 6.70141 64.2959 6.70141C65.2117 6.70141 65.9381 6.78037 66.4749 6.93827C67.0118 7.09618 67.4224 7.28566 67.7066 7.50673C67.9908 7.7278 68.2119 8.0436 68.3698 8.45416C68.5277 8.99103 68.6067 9.81214 68.6067 10.9175V37.2086C68.6067 37.935 68.5751 38.4876 68.5119 38.8666C68.4803 39.214 68.3382 39.6245 68.0856 40.0983C67.6434 40.9509 66.4118 41.3773 64.3906 41.3773C62.1799 41.3773 60.8851 40.793 60.5061 39.6245C60.3166 39.0877 60.2219 38.2666 60.2219 37.1612V27.5448H47.6685V37.2086C47.6685 37.935 47.6369 38.4876 47.5737 38.8666C47.5422 39.214 47.4 39.6245 47.1474 40.0983C46.7053 40.9509 45.4736 41.3773 43.4524 41.3773C41.2418 41.3773 39.9469 40.793 39.568 39.6245C39.3785 39.0877 39.2837 38.2666 39.2837 37.1612V10.8701C39.2837 10.1437 39.2995 9.60686 39.3311 9.25947C39.3943 8.8805 39.5522 8.45416 39.8048 7.98044C40.247 7.12776 41.4786 6.70141 43.4998 6.70141C45.7105 6.70141 47.0211 7.28566 47.4316 8.45416C47.5895 8.99103 47.6685 9.81214 47.6685 10.9175V20.5812H60.2219V10.8701C60.2219 10.1437 60.2377 9.60686 60.2693 9.25947C60.3324 8.8805 60.4903 8.45416 60.743 7.98044Z" fill="#2B2B2B"/>
<path d="M128.845 13.7124C129.666 15.3862 130.076 17.2495 130.076 19.3022C130.076 21.355 129.666 23.2182 128.845 24.892C128.023 26.5342 126.966 27.8449 125.671 28.8239C123.049 30.845 120.334 31.8556 117.523 31.8556H111.601V37.2086C111.601 37.935 111.57 38.4876 111.507 38.8666C111.475 39.214 111.333 39.6245 111.08 40.0983C110.638 40.9509 109.407 41.3773 107.385 41.3773C105.175 41.3773 103.88 40.793 103.501 39.6245C103.311 39.0877 103.217 38.2666 103.217 37.1612V10.8701C103.217 10.1437 103.232 9.60686 103.264 9.25947C103.327 8.8805 103.485 8.45416 103.738 7.98044C104.18 7.12776 105.412 6.70141 107.433 6.70141H117.57C120.349 6.70141 123.049 7.71201 125.671 9.73319C126.966 10.7122 128.023 12.0386 128.845 13.7124ZM117.57 23.4709C118.518 23.4709 119.449 23.1235 120.365 22.4287C121.281 21.7339 121.739 20.6918 121.739 19.3022C121.739 17.9127 121.281 16.8705 120.365 16.1757C119.449 15.4493 118.502 15.0862 117.523 15.0862H111.601V23.4709H117.57Z" fill="#2B2B2B"/>
<path d="M82.3732 34.2242C82.689 33.5926 83.1628 33.1662 83.7944 32.9452C84.4576 32.7241 85.4682 32.6136 86.8261 32.6136C88.2157 32.6136 89.2105 32.9136 89.8105 33.5136C90.4422 34.1137 90.758 35.0611 90.758 36.3559V37.1139C90.758 37.8718 90.7264 38.4403 90.6632 38.8192C90.6317 39.1666 90.4895 39.593 90.2369 40.0983C89.7316 41.0141 88.5157 41.472 86.5893 41.472C84.6944 41.472 83.4312 41.172 82.7996 40.572C82.1995 39.9404 81.8995 38.7403 81.8995 36.9718C81.8995 35.7401 82.0574 34.8242 82.3732 34.2242ZM88.721 28.6818C88.121 28.8397 87.3157 28.9186 86.3051 28.9186C85.2945 28.9186 84.4892 28.8397 83.8891 28.6818C83.2891 28.5238 82.8627 28.2396 82.6101 27.8291C82.389 27.4185 82.2469 27.0553 82.1837 26.7395C82.1522 26.4237 82.1364 25.9342 82.1364 25.271V10.2543C82.1364 9.59107 82.1522 9.10157 82.1837 8.78576C82.2469 8.43837 82.4048 8.05939 82.6575 7.64884C82.9101 7.23829 83.3365 6.95406 83.9365 6.79616C84.5365 6.60667 85.3418 6.51193 86.3524 6.51193C87.363 6.51193 88.1683 6.60667 88.7684 6.79616C89.3684 6.95406 89.779 7.25408 90 7.69622C90.2527 8.10677 90.3948 8.48574 90.4264 8.83313C90.4895 9.14894 90.5211 9.63844 90.5211 10.3016V25.3184C90.5211 25.9816 90.4895 26.4711 90.4264 26.7869C90.3948 27.1027 90.2527 27.4659 90 27.8764C89.7474 28.2554 89.321 28.5238 88.721 28.6818Z" fill="#EF6060"/>
<path d="M72.0151 13.4961C71.8148 12.8181 71.7147 11.9081 71.7147 10.7662C71.7147 9.6243 71.8148 8.71434 72.0151 8.03633C72.2154 7.35832 72.576 6.87658 73.0967 6.5911C73.6175 6.34131 74.0782 6.18073 74.4788 6.10936C74.8794 6.07367 75.5004 6.05583 76.3416 6.05583L95.3904 6.05583C96.2316 6.05583 96.8526 6.07368 97.2532 6.10936C97.6938 6.18073 98.1746 6.35915 98.6953 6.64463C99.2161 6.93011 99.5767 7.41185 99.777 8.08986C100.017 8.76787 100.138 9.67783 100.138 10.8197C100.138 11.9616 100.017 12.8716 99.777 13.5496C99.5767 14.2276 99.1961 14.6915 98.6352 14.9413C98.1145 15.2268 97.6337 15.3874 97.1931 15.4231C96.7925 15.4944 96.1715 15.5301 95.3303 15.5301L76.2815 15.5301C75.4403 15.5301 74.8193 15.4944 74.4187 15.4231C74.0181 15.3874 73.5574 15.2268 73.0366 14.9413C72.5559 14.6558 72.2154 14.1741 72.0151 13.4961Z" fill="#2B2B2B"/>
</g>
<defs>
<clipPath id="clip0_0_4">
<rect width="131.507" height="48" fill="white"/>
</clipPath>
</defs>
</svg>
