<svg width="133" height="48" viewBox="0 0 133 48" fill="none" xmlns="http://www.w3.org/2000/svg">
<g clip-path="url(#clip0_408_2)">
<rect x="0.90411" width="131.507" height="48" rx="6.57534" fill="black"/>
<path d="M19.7523 6.27507C24.4262 6.27507 28.4844 7.96465 31.9267 11.3438C35.369 14.723 37.0902 18.9232 37.0902 23.9446C37.0902 28.9344 35.448 33.1978 32.1636 36.7349C28.8792 40.2404 24.8368 41.9931 20.0365 41.9931C15.2362 41.9931 11.1465 40.2562 7.7673 36.7823C4.41972 33.3084 2.74593 29.1713 2.74593 24.371C2.74593 21.7497 3.21964 19.3022 4.16707 17.0284C5.1145 14.723 6.37774 12.7965 7.95679 11.2491C9.53583 9.7016 11.3517 8.48574 13.4045 7.60147C15.4573 6.7172 17.5732 6.27507 19.7523 6.27507ZM11.1307 24.1341C11.1307 26.9448 12.0307 29.2344 13.8308 31.003C15.6625 32.7399 17.6995 33.6084 19.9418 33.6084C22.184 33.6084 24.2052 32.7557 26.0053 31.0503C27.8054 29.345 28.7055 27.0553 28.7055 24.1815C28.7055 21.3076 27.7896 19.0022 25.9579 17.2652C24.1578 15.5283 22.1366 14.6598 19.8944 14.6598C17.6521 14.6598 15.631 15.5441 13.8308 17.3126C12.0307 19.0496 11.1307 21.3234 11.1307 24.1341Z" fill="#F3F3F3"/>
<path d="M61.6471 7.98044C61.8998 7.50673 62.3261 7.17513 62.9261 6.98564C63.5262 6.79616 64.2841 6.70141 65.2 6.70141C66.1158 6.70141 66.8422 6.78037 67.3791 6.93827C67.9159 7.09618 68.3265 7.28566 68.6107 7.50673C68.8949 7.7278 69.116 8.0436 69.2739 8.45416C69.4318 8.99103 69.5108 9.81214 69.5108 10.9175V37.2086C69.5108 37.935 69.4792 38.4876 69.416 38.8666C69.3844 39.214 69.2423 39.6245 68.9897 40.0983C68.5475 40.9509 67.3159 41.3773 65.2947 41.3773C63.084 41.3773 61.7892 40.793 61.4103 39.6245C61.2208 39.0877 61.126 38.2666 61.126 37.1612V27.5448H48.5726V37.2086C48.5726 37.935 48.541 38.4876 48.4779 38.8666C48.4463 39.214 48.3042 39.6245 48.0515 40.0983C47.6094 40.9509 46.3777 41.3773 44.3565 41.3773C42.1459 41.3773 40.8511 40.793 40.4721 39.6245C40.2826 39.0877 40.1879 38.2666 40.1879 37.1612V10.8701C40.1879 10.1437 40.2036 9.60686 40.2352 9.25947C40.2984 8.8805 40.4563 8.45416 40.7089 7.98044C41.1511 7.12776 42.3827 6.70141 44.4039 6.70141C46.6146 6.70141 47.9252 7.28566 48.3357 8.45416C48.4936 8.99103 48.5726 9.81214 48.5726 10.9175V20.5812H61.126V10.8701C61.126 10.1437 61.1418 9.60686 61.1734 9.25947C61.2366 8.8805 61.3945 8.45416 61.6471 7.98044Z" fill="#F3F3F3"/>
<path d="M129.749 13.7124C130.57 15.3862 130.98 17.2495 130.98 19.3022C130.98 21.355 130.57 23.2182 129.749 24.892C128.928 26.5342 127.87 27.8449 126.575 28.8239C123.954 30.845 121.238 31.8556 118.427 31.8556H112.506V37.2086C112.506 37.935 112.474 38.4876 112.411 38.8666C112.379 39.214 112.237 39.6245 111.984 40.0983C111.542 40.9509 110.311 41.3773 108.289 41.3773C106.079 41.3773 104.784 40.793 104.405 39.6245C104.216 39.0877 104.121 38.2666 104.121 37.1612V10.8701C104.121 10.1437 104.137 9.60686 104.168 9.25947C104.231 8.8805 104.389 8.45416 104.642 7.98044C105.084 7.12776 106.316 6.70141 108.337 6.70141H118.474C121.253 6.70141 123.954 7.71201 126.575 9.73319C127.87 10.7122 128.928 12.0386 129.749 13.7124ZM118.474 23.4709C119.422 23.4709 120.353 23.1235 121.269 22.4287C122.185 21.7339 122.643 20.6918 122.643 19.3022C122.643 17.9127 122.185 16.8705 121.269 16.1757C120.353 15.4493 119.406 15.0862 118.427 15.0862H112.506V23.4709H118.474Z" fill="#F3F3F3"/>
<path d="M83.2774 34.2242C83.5932 33.5926 84.0669 33.1662 84.6985 32.9452C85.3617 32.7241 86.3723 32.6136 87.7303 32.6136C89.1198 32.6136 90.1146 32.9136 90.7147 33.5136C91.3463 34.1137 91.6621 35.0611 91.6621 36.3559V37.1139C91.6621 37.8718 91.6305 38.4403 91.5673 38.8192C91.5358 39.1666 91.3937 39.593 91.141 40.0983C90.6357 41.0141 89.4198 41.472 87.4934 41.472C85.5986 41.472 84.3353 41.172 83.7037 40.572C83.1037 39.9404 82.8036 38.7403 82.8036 36.9718C82.8036 35.7401 82.9615 34.8242 83.2774 34.2242ZM89.6251 28.6818C89.0251 28.8397 88.2198 28.9186 87.2092 28.9186C86.1986 28.9186 85.3933 28.8397 84.7932 28.6818C84.1932 28.5238 83.7669 28.2396 83.5142 27.8291C83.2931 27.4185 83.151 27.0553 83.0879 26.7395C83.0563 26.4237 83.0405 25.9342 83.0405 25.271V10.2543C83.0405 9.59107 83.0563 9.10157 83.0879 8.78576C83.151 8.43837 83.3089 8.05939 83.5616 7.64884C83.8142 7.23829 84.2406 6.95406 84.8406 6.79616C85.4406 6.60667 86.246 6.51193 87.2566 6.51193C88.2671 6.51193 89.0725 6.60667 89.6725 6.79616C90.2725 6.95406 90.6831 7.25408 90.9041 7.69622C91.1568 8.10677 91.2989 8.48574 91.3305 8.83313C91.3937 9.14894 91.4252 9.63844 91.4252 10.3016V25.3184C91.4252 25.9816 91.3937 26.4711 91.3305 26.7869C91.2989 27.1027 91.1568 27.4659 90.9041 27.8764C90.6515 28.2554 90.2252 28.5238 89.6251 28.6818Z" fill="#EF6060"/>
<path d="M72.9192 13.4961C72.7189 12.8181 72.6188 11.9081 72.6188 10.7662C72.6188 9.6243 72.7189 8.71434 72.9192 8.03633C73.1195 7.35832 73.4801 6.87658 74.0009 6.5911C74.5216 6.34131 74.9823 6.18073 75.3829 6.10936C75.7835 6.07367 76.4045 6.05583 77.2457 6.05583L96.2945 6.05583C97.1357 6.05583 97.7567 6.07368 98.1573 6.10936C98.5979 6.18073 99.0787 6.35915 99.5995 6.64463C100.12 6.93011 100.481 7.41185 100.681 8.08986C100.921 8.76787 101.042 9.67783 101.042 10.8197C101.042 11.9616 100.921 12.8716 100.681 13.5496C100.481 14.2276 100.1 14.6915 99.5394 14.9413C99.0186 15.2268 98.5379 15.3874 98.0972 15.4231C97.6966 15.4944 97.0757 15.5301 96.2344 15.5301L77.1857 15.5301C76.3444 15.5301 75.7235 15.4944 75.3228 15.4231C74.9222 15.3874 74.4615 15.2268 73.9408 14.9413C73.46 14.6558 73.1195 14.1741 72.9192 13.4961Z" fill="#F3F3F3"/>
</g>
<defs>
<clipPath id="clip0_408_2">
<rect width="131.507" height="48" fill="white" transform="translate(0.90411)"/>
</clipPath>
</defs>
</svg>
