<svg
    width="128"
    height="128"
    viewBox="0 0 128 128"
    fill="none"
    xmlns="http://www.w3.org/2000/svg">
    <path
        d="M24.36 49.32C28.3067 49.32 31.7333 50.7467 34.64 53.6C37.5467 56.4533 39 60 39 64.24C39 68.4533 37.6133 72.0533 34.84 75.04C32.0667 78 28.6533 79.48 24.6 79.48C20.5467 79.48 17.0933 78.0133 14.24 75.08C11.4133 72.1467 10 68.6533 10 64.6C10 62.3867 10.4 60.32 11.2 58.4C12 56.4533 13.0667 54.8267 14.4 53.52C15.7333 52.2133 17.2667 51.1867 19 50.44C20.7333 49.6933 22.52 49.32 24.36 49.32ZM17.08 64.4C17.08 66.7733 17.84 68.7067 19.36 70.2C20.9067 71.6667 22.6267 72.4 24.52 72.4C26.4133 72.4 28.12 71.68 29.64 70.24C31.16 68.8 31.92 66.8667 31.92 64.44C31.92 62.0133 31.1467 60.0667 29.6 58.6C28.08 57.1333 26.3733 56.4 24.48 56.4C22.5867 56.4 20.88 57.1467 19.36 58.64C17.84 60.1067 17.08 62.0267 17.08 64.4ZM59.7356 50.76C59.949 50.36 60.309 50.08 60.8156 49.92C61.3223 49.76 61.9623 49.68 62.7356 49.68C63.509 49.68 64.1223 49.7467 64.5756 49.88C65.029 50.0133 65.3756 50.1733 65.6156 50.36C65.8556 50.5467 66.0423 50.8133 66.1756 51.16C66.309 51.6133 66.3756 52.3067 66.3756 53.24V75.44C66.3756 76.0533 66.349 76.52 66.2956 76.84C66.269 77.1333 66.149 77.48 65.9356 77.88C65.5623 78.6 64.5223 78.96 62.8156 78.96C60.949 78.96 59.8556 78.4667 59.5356 77.48C59.3756 77.0267 59.2956 76.3333 59.2956 75.4V67.28H48.6956V75.44C48.6956 76.0533 48.669 76.52 48.6156 76.84C48.589 77.1333 48.469 77.48 48.2556 77.88C47.8823 78.6 46.8423 78.96 45.1356 78.96C43.269 78.96 42.1756 78.4667 41.8556 77.48C41.6956 77.0267 41.6156 76.3333 41.6156 75.4V53.2C41.6156 52.5867 41.629 52.1333 41.6556 51.84C41.709 51.52 41.8423 51.16 42.0556 50.76C42.429 50.04 43.469 49.68 45.1756 49.68C47.0423 49.68 48.149 50.1733 48.4956 51.16C48.629 51.6133 48.6956 52.3067 48.6956 53.24V61.4H59.2956V53.2C59.2956 52.5867 59.309 52.1333 59.3356 51.84C59.389 51.52 59.5223 51.16 59.7356 50.76Z"
        fill="#2B2B2B" />
    <path
        d="M117.24 55.6C117.933 57.0133 118.28 58.5867 118.28 60.32C118.28 62.0533 117.933 63.6267 117.24 65.04C116.547 66.4267 115.653 67.5333 114.56 68.36C112.347 70.0667 110.053 70.92 107.68 70.92H102.68V75.44C102.68 76.0533 102.653 76.52 102.6 76.84C102.573 77.1333 102.453 77.48 102.24 77.88C101.867 78.6 100.827 78.96 99.12 78.96C97.2533 78.96 96.16 78.4667 95.84 77.48C95.68 77.0267 95.6 76.3333 95.6 75.4V53.2C95.6 52.5867 95.6133 52.1333 95.64 51.84C95.6933 51.52 95.8267 51.16 96.04 50.76C96.4133 50.04 97.4533 49.68 99.16 49.68H107.72C110.067 49.68 112.347 50.5333 114.56 52.24C115.653 53.0667 116.547 54.1867 117.24 55.6ZM107.72 63.84C108.52 63.84 109.307 63.5467 110.08 62.96C110.853 62.3733 111.24 61.4933 111.24 60.32C111.24 59.1467 110.853 58.2667 110.08 57.68C109.307 57.0667 108.507 56.76 107.68 56.76H102.68V63.84H107.72Z"
        fill="#2B2B2B" />
    <path
        d="M78 72.92C78.2667 72.3867 78.6667 72.0267 79.2 71.84C79.76 71.6533 80.6133 71.56 81.76 71.56C82.9333 71.56 83.7733 71.8133 84.28 72.32C84.8133 72.8267 85.08 73.6267 85.08 74.72V75.36C85.08 76 85.0533 76.48 85 76.8C84.9733 77.0933 84.8533 77.4533 84.64 77.88C84.2133 78.6533 83.1867 79.04 81.56 79.04C79.96 79.04 78.8933 78.7867 78.36 78.28C77.8533 77.7467 77.6 76.7333 77.6 75.24C77.6 74.2 77.7333 73.4267 78 72.92ZM83.36 68.24C82.8533 68.3733 82.1733 68.44 81.32 68.44C80.4667 68.44 79.7867 68.3733 79.28 68.24C78.7733 68.1067 78.4133 67.8667 78.2 67.52C78.0133 67.1733 77.8933 66.8667 77.84 66.6C77.8133 66.3333 77.8 65.92 77.8 65.36V52.68C77.8 52.12 77.8133 51.7067 77.84 51.44C77.8933 51.1467 78.0267 50.8267 78.24 50.48C78.4533 50.1333 78.8133 49.8933 79.32 49.76C79.8267 49.6 80.5067 49.52 81.36 49.52C82.2133 49.52 82.8933 49.6 83.4 49.76C83.9067 49.8933 84.2533 50.1467 84.44 50.52C84.6533 50.8667 84.7733 51.1867 84.8 51.48C84.8533 51.7467 84.88 52.16 84.88 52.72V65.4C84.88 65.96 84.8533 66.3733 84.8 66.64C84.7733 66.9067 84.6533 67.2133 84.44 67.56C84.2267 67.88 83.8667 68.1067 83.36 68.24Z"
        fill="#EF6060" />
    <path
        d="M69.2537 55.2825C69.0846 54.71 69 53.9416 69 52.9774C69 52.0132 69.0846 51.2448 69.2537 50.6723C69.4228 50.0998 69.7273 49.693 70.167 49.452C70.6068 49.2411 70.9958 49.1055 71.334 49.0452C71.6723 49.0151 72.1966 49 72.907 49L88.9915 49C89.7019 49 90.2262 49.0151 90.5645 49.0452C90.9366 49.1055 91.3425 49.2561 91.7822 49.4972C92.222 49.7382 92.5264 50.145 92.6956 50.7175C92.8985 51.29 93 52.0584 93 53.0226C93 53.9868 92.8985 54.7552 92.6956 55.3277C92.5264 55.9002 92.2051 56.2919 91.7315 56.5028C91.2918 56.7439 90.8858 56.8795 90.5137 56.9096C90.1755 56.9699 89.6512 57 88.9408 57L72.8562 57C72.1459 57 71.6216 56.9699 71.2833 56.9096C70.945 56.8795 70.556 56.7439 70.1163 56.5028C69.7104 56.2618 69.4228 55.855 69.2537 55.2825Z"
        fill="#2B2B2B" />
</svg>